<?xml version="1.0" encoding="UTF-8"?>
<svg width="138px" height="120px" viewBox="0 0 138 120" version="1.1" xmlns="http://www.w3.org/2000/svg" xmlns:xlink="http://www.w3.org/1999/xlink">
    <!-- Generator: Sketch 61 (89581) - https://sketch.com -->
    <title>编组 2备份</title>
    <desc>Created with Sketch.</desc>
    <defs>
        <polygon id="path-1" points="-1.98951966e-12 7.77156117e-15 140 7.77156117e-15 140 140 -1.09360437e-12 140"></polygon>
        <linearGradient x1="50%" y1="100%" x2="50%" y2="0%" id="linearGradient-3">
            <stop stop-color="#EBEEF1" stop-opacity="0.549111187" offset="0%"></stop>
            <stop stop-color="#EAEDF0" offset="100%"></stop>
        </linearGradient>
        <linearGradient x1="50%" y1="0%" x2="50%" y2="35.3359452%" id="linearGradient-4">
            <stop stop-color="#EDF1F2" offset="0%"></stop>
            <stop stop-color="#F4F4F4" stop-opacity="0.0904664855" offset="100%"></stop>
        </linearGradient>
        <ellipse id="path-5" cx="68.6565957" cy="13.4827586" rx="68.6565957" ry="13.4827586"></ellipse>
        <linearGradient x1="0%" y1="48.3320966%" x2="100%" y2="50.7626619%" id="linearGradient-7">
            <stop stop-color="#DAE0E6" offset="0%"></stop>
            <stop stop-color="#DAE0E6" offset="100%"></stop>
        </linearGradient>
        <linearGradient x1="17.3021308%" y1="85.5344395%" x2="84.2917943%" y2="10.6291614%" id="linearGradient-8">
            <stop stop-color="#E1E6EB" stop-opacity="0.174479167" offset="0%"></stop>
            <stop stop-color="#E1E6EB" stop-opacity="0.541610054" offset="100%"></stop>
        </linearGradient>
    </defs>
    <g id="废" stroke="none" stroke-width="1" fill="none" fill-rule="evenodd">
        <g id="空数据" transform="translate(-442.000000, -1988.000000)">
            <g id="编组-2备份" transform="translate(441.000000, 1968.000000)">
                <g id="Group-3">
                    <mask id="mask-2" fill="white">
                        <use xlink:href="#path-1"></use>
                    </mask>
                    <g id="Mask" opacity="0" fill-rule="nonzero"></g>
                    <g id="编组" mask="url(#mask-2)">
                        <g transform="translate(0.700000, 20.300000)">
                            <g id="Group-3" stroke-width="1" fill="none">
                                <g id="Group-4" transform="translate(30.514043, 0.000000)">
                                    <rect id="Rectangle" fill="url(#linearGradient-3)" opacity="0.494442894" x="0" y="4.10344828" width="75.1114894" height="89.7241379"></rect>
                                    <rect id="Rectangle" fill="#FFFFFF" fill-rule="nonzero" x="24.5625532" y="22.2758621" width="39.986383" height="3.51724138"></rect>
                                    <rect id="Rectangle-Copy-3" fill="#FFFFFF" fill-rule="nonzero" x="10.5625532" y="22.2758621" width="7" height="3.51724138"></rect>
                                    <rect id="Rectangle-Copy" fill="#FFFFFF" fill-rule="nonzero" x="24.5625532" y="39.862069" width="39.986383" height="3.51724138"></rect>
                                    <rect id="Rectangle-Copy-4" fill="#FFFFFF" fill-rule="nonzero" x="10.5625532" y="39.862069" width="7" height="3.51724138"></rect>
                                    <rect id="Rectangle-Copy-2" fill="#FFFFFF" fill-rule="nonzero" x="24.5625532" y="57.4482759" width="39.986383" height="3.51724138"></rect>
                                    <rect id="Rectangle-Copy-5" fill="#FFFFFF" fill-rule="nonzero" x="10.5625532" y="57.4482759" width="7" height="3.51724138"></rect>
                                    <rect id="Rectangle" fill="#EDEFF0" fill-rule="nonzero" x="15.2570213" y="0" width="44.5974468" height="9.37931034" rx="1.68000004"></rect>
                                </g>
                                <g id="大星球" transform="translate(0.586809, 92.034483)">
                                    <mask id="mask-6" fill="white">
                                        <use xlink:href="#path-5"></use>
                                    </mask>
                                    <use id="Oval" fill="url(#linearGradient-4)" xlink:href="#path-5"></use>
                                </g>
                            </g>
                            <g id="星球" stroke-width="1" fill="none" transform="translate(107.800000, 60.200000)">
                                <ellipse id="Oval" fill-opacity="0.243602808" fill="#C0C9D1" cx="10.8840155" cy="7.35" rx="7.692839" ry="7.35"></ellipse>
                                <path d="M3.61944554,4.69266977 C1.71959539,5.33200323 0.551239087,6.24527209 0.570792033,7.27613799 C0.609471741,9.31540055 5.28213661,11.0426271 11.0074811,11.1340064 C16.7328257,11.2253857 21.3427783,9.6463144 21.3040986,7.60705184 C21.2829862,6.49397008 19.881291,5.47385184 17.6813884,4.76196926" id="Path" stroke="url(#linearGradient-7)" stroke-width="0.931000006" opacity="0.636114211" stroke-linecap="round" stroke-linejoin="round" transform="translate(10.937445, 7.915225) rotate(23.000000) translate(-10.937445, -7.915225) "></path>
                            </g>
                            <circle id="Oval" fill="url(#linearGradient-8)" cx="18.2" cy="77.7" r="4.9"></circle>
                            <g id="Group-4" stroke-width="1" fill="none" transform="translate(81.900000, 45.500000)">
                                <path d="M10.2329637,61.6332554 C7.83403488,60.0922395 6.57900335,59.8140092 6.46786912,60.7985648 C6.30116779,62.275398 10.4997599,65.4453915 11.3623326,64.9441624 C12.2249054,64.4429333 11.9009741,63.2175389 11.7605458,62.8517108 C11.666927,62.6078253 11.1577329,62.2016736 10.2329637,61.6332554 Z" id="Path-16-Copy-2" fill="#786D5A" fill-rule="nonzero" transform="translate(9.200565, 62.610090) rotate(-24.000000) translate(-9.200565, -62.610090) "></path>
                                <path d="M9.14375,60.9254173 L11.3604167,60.9254173 L11.3604167,62.0337507 C10.9909722,62.2184729 10.6215278,62.310834 10.2520833,62.310834 C9.88263889,62.310834 9.51319444,62.2184729 9.14375,62.0337507 L9.14375,60.9254173 Z" id="Rectangle" fill="#FFE4D5" fill-rule="nonzero"></path>
                                <path d="M2.46296296,29.7101777 L8.86666667,61.599244 C9.35930924,61.7630813 9.85190184,61.845 10.3444444,61.845 C10.6728395,61.845 11.1792775,61.6811627 11.8637584,61.353488 L11.3604167,46.0501348 L11.8637584,33.5830628 C12.3286602,31.9446896 12.3286602,30.3882351 11.8637584,28.9136992 C11.3988565,27.4391634 8.26525805,27.7046562 2.46296296,29.7101777 Z" id="Path-22-Copy" fill="#6F7D8B" fill-rule="nonzero"></path>
                                <path d="M5.48819589,62.3749229 C2.88097532,61.1267921 1.510356,60.9951333 1.37633794,61.9799466 C1.17531085,63.4571666 5.78344491,65.7795665 6.52631197,65.1125115 C7.02155667,64.6678082 7.20087182,64.0579108 7.06425741,63.2828194 L5.48819589,62.3749229 Z" id="Path-16-Copy" fill="#786D5A" fill-rule="nonzero" transform="translate(4.239259, 63.279288) rotate(-18.000000) translate(-4.239259, -63.279288) "></path>
                                <path d="M4.43333333,61.5125 L6.65,61.5125 L6.65,62.6208333 C6.28055556,62.8055556 5.91111111,62.8979167 5.54166667,62.8979167 C5.17222222,62.8979167 4.80277778,62.8055556 4.43333333,62.6208333 L4.43333333,61.5125 Z" id="Rectangle" fill="#FFE4D5" fill-rule="nonzero"></path>
                                <path d="M1.72407407,30.1159697 C1.49830247,37.5622677 1.49830247,42.5784722 1.72407407,45.1645833 C2.53483782,54.4515135 3.51449753,60.6163539 4.05093476,61.9755671 C4.20975177,62.3779742 5.03461947,62.402331 6.52707779,62.3545718 C6.75252959,62.3473573 6.94315217,62.2210224 7.09894555,61.9755671 L7.67580682,45.4416667 L9.35569486,34.9125 C10.7314496,32.7924231 11.1607868,31.1935797 10.6437067,30.1159697 C10.1266265,29.0383597 7.15341567,29.0383597 1.72407407,30.1159697 Z" id="Path-22" fill="#7C8996" fill-rule="nonzero"></path>
                                <g id="Group" transform="translate(0.985185, 0.000000)" fill-rule="nonzero">
                                    <path d="M3.48539646,7.21482781 L6.36321978,7.328017 L6.45726523,11.4179303 C5.68412856,11.6745619 5.15316972,11.7876827 4.8643887,11.7572927 C4.57560767,11.7269027 4.35533524,11.6457613 4.2035714,11.5138686 L4.22662122,9.8071015 L3.48539646,7.21482781 Z" id="Rectangle" fill="#FDD7C1" transform="translate(4.971331, 9.488474) rotate(6.000000) translate(-4.971331, -9.488474) "></path>
                                    <g id="Group-3" transform="translate(5.491895, 5.792278) rotate(10.000000) translate(-5.491895, -5.792278) translate(0.941895, 0.892278)">
                                        <path d="M3.3972384,8.81895282 C4.53812941,8.69016467 6.86344997,7.09123273 6.88189345,5.12765576 C6.90033694,3.16407879 5.6509791,1.58653423 4.09137462,1.60411135 C2.53177014,1.62168848 1.2525095,3.2277312 1.23406601,5.19130817 C1.21562253,7.15488514 2.25634739,8.94774097 3.3972384,8.81895282 Z" id="Oval" fill="#FFE4D5" transform="translate(4.057960, 5.214730) rotate(15.000000) translate(-4.057960, -5.214730) "></path>
                                        <path d="M7.60628578,7.08255897 C7.51935964,7.23352668 7.45276444,7.32982333 7.40650018,7.37144892 C6.89931794,7.82777878 6.33730032,7.91591431 5.73172836,7.80727341 C5.04329762,7.68376746 4.48877387,6.89308524 4.06815712,5.43522676 L7.60628578,7.08255897 Z" id="Path-10" fill="#4D5359"></path>
                                        <path d="M1.27635988,1.88167148 C1.51701895,2.89108264 2.4094828,4.95828854 3.32123852,4.78507449 C3.64025336,4.7244685 3.88756111,5.57571409 4.65544713,6.14177622 C5.11892106,6.48343505 6.065767,6.86356695 7.49598493,7.28217193 C9.40256802,5.10984847 9.39660613,3.17017112 7.47809925,1.46313987 C5.93651531,0.0914836138 3.94614677,0.31616576 2.40456283,0.979287317 C2.02763989,1.14142298 1.03570081,0.872260328 1.27635988,1.88167148 Z" id="Path-7" fill="#4D5359"></path>
                                    </g>
                                </g>
                                <path d="M1.72407407,19.201875 C1.97037037,18.0810964 2.70925926,10.9725 5.66481481,10.224375 C8.62037037,9.47625 11.3296296,13.46625 12.3148148,20.5289158 C12.9716049,25.2373596 13.0537037,28.3693877 12.5611111,29.925 C10.1645162,30.5624869 8.19414583,30.8949869 6.65,30.9225 C5.10585417,30.9500131 2.97128627,30.7837631 0.246296296,30.42375 C1.06728395,23.6896857 1.55987654,19.9490607 1.72407407,19.201875 Z" id="Path-21" fill="#5990FF" fill-rule="nonzero"></path>
                                <path d="M4.82062738,5.46262681 C4.99001283,5.12611786 5.43820262,5.32462387 5.56013497,5.46493584 C5.80751445,5.74960437 5.6976749,6.23242704 5.56314666,6.43991861 C5.39959245,6.6921788 5.15409382,7.01640338 4.82665077,7.41259235 C4.70971154,6.33695463 4.70770374,5.68696611 4.82062738,5.46262681 Z" id="Path-25" fill="#FFE4D5" fill-rule="nonzero" transform="translate(5.222484, 6.345110) rotate(15.000000) translate(-5.222484, -6.345110) "></path>
                                <path d="M3.25537244,17.0226004 L6.60431662,17.4063954 C5.91977953,20.2057549 5.50750939,22.5461942 5.36750619,24.4277131 C5.22750298,26.3092321 5.29223401,28.6732982 5.56169928,31.5199115 L4.07819025,32.2475207 C3.34219878,29.0373874 2.9590289,26.5527646 2.92868059,24.7936521 C2.89833228,23.0345395 3.00722957,20.444189 3.25537244,17.0226004 Z" id="Path-24" fill="#FFE4D5" fill-rule="nonzero" transform="translate(4.764018, 24.635061) scale(-1, 1) rotate(-16.000000) translate(-4.764018, -24.635061) "></path>
                                <path d="M1.97037037,31.171875 C2.79135802,32.003125 3.44814815,32.501875 3.94074074,32.668125" id="Path-27" stroke="#C4C4C4" stroke-width="0.712499981" stroke-linecap="round" fill-rule="nonzero"></path>
                            </g>
                        </g>
                    </g>
                </g>
            </g>
        </g>
    </g>
</svg>